<svg width="256" height="256" viewBox="0 0 256 256" fill="none" xmlns="http://www.w3.org/2000/svg">
  <defs>
    <linearGradient id="grad" x1="32" y1="32" x2="224" y2="224">
      <stop offset="0%" stop-color="#38BDF8"/>
      <stop offset="100%" stop-color="#2563EB"/>
    </linearGradient>
  </defs>

  <rect x="20" y="20" width="216" height="216" rx="48" fill="#0F172A"/>

  <path d="M80 76C80 67.1634 87.1634 60 96 60H144C166.091 60 184 77.9086 184 100C184 122.091 166.091 140 144 140H112V196H80V76Z" fill="url(#grad)"/>

  <path d="M128 92H144C148.418 92 152 95.5817 152 100C152 104.418 148.418 108 144 108H128V92Z" fill="#0F172A"/>

  <path d="M152 164L196 120" stroke="#7DD3FC" stroke-width="12" stroke-linecap="round"/>
  <path d="M176 120H196V140" stroke="#7DD3FC" stroke-width="12" stroke-linecap="round" stroke-linejoin="round"/>
</svg>